# xmcd
#
# Track frame offsets: 
#        150
#        14263
#        33175
#        49149
#        60624
#        72179
#        85333
#        106376
#        116085
#        135347
#        144013
#        153470
#        167970
#        181885
#        191069
#        201760
#        216561
#        237216
#        246344
#        258525
#        269704
#        281782
#        296955
#        309926
#        324829
#        335590
#
# Disc length: 4632 seconds
#
# Revision: 0
# Processed by: cddbd v1.5.2PL0 Copyright (c) Steve Scherf et al.
# Submitted via: ExactAudioCopy v0.99pb5
#
DISCID=8f12161a
DTITLE=Андрей Веренок - Становимся большими
DYEAR=2008
DGENRE=Folklore
TTITLE0=Становимся большими
TTITLE1=Снова волны печальные...
TTITLE2=Гуляет молодость моя
TTITLE3=Стояли Вы у Главпочтамта
TTITLE4=То льды всю ночь арктические снятся...
TTITLE5=Апрель
TTITLE6=В 19-ом бы веке...
TTITLE7=Вонзился в мозг тревоги гвоздь...
TTITLE8=Всю ночь кричали гуси...
TTITLE9=Длинной улицей бреду...
TTITLE10=Песня о жизни
TTITLE11=Искал, чем вылечить тоску...
TTITLE12=Целовала я иконку...
TTITLE13=Если милая, ты заболеешь...
TTITLE14=Мне себя немного жалко...
TTITLE15=Намокли продукты и вещи...
TTITLE16=Новый год недавно встретили...
TTITLE17=Один хороший человек...
TTITLE18=Песня про Лену Огородникову
TTITLE19=Песня про Серого Волка
TTITLE20=сколько б всяческих проблем...
TTITLE21=Беломорск
TTITLE22=Ты всю ночь пила вино...
TTITLE23=Я счастливый билетик ''посеял''...
TTITLE24=Это - не обида, не угроза...
TTITLE25=Вот и кончилась зима...
EXTD=
EXTT0=
EXTT1=
EXTT2=
EXTT3=
EXTT4=
EXTT5=
EXTT6=
EXTT7=
EXTT8=
EXTT9=
EXTT10=
EXTT11=
EXTT12=
EXTT13=
EXTT14=
EXTT15=
EXTT16=
EXTT17=
EXTT18=
EXTT19=
EXTT20=
EXTT21=
EXTT22=
EXTT23=
EXTT24=
EXTT25=
PLAYORDER=
